# MagicaVoxel @ Ephtracy

# group
o 

# material
mtllib Misslel.mtl
usemtl palette

# normals
vn -1 0 0
vn 1 0 0
vn 0 0 1
vn 0 0 -1
vn 0 -1 0
vn 0 1 0

# texcoords
vt 0.841797 0.5
vt 0.990234 0.5
vt 0.994141 0.5

# verts
v -0.5 0.4 -0.2
v -0.5 0.4 -0.4
v -0.5 0.5 -0.2
v -0.5 0.5 -0.4
v -0.4 0.4 -0.1
v -0.4 0.4 -0.2
v -0.4 0.5 -0.1
v -0.4 0.5 -0.2
v -0.3 0.4 0.2
v -0.3 0.4 0.1
v -0.3 0.4 -0.1
v -0.3 0.4 -0.4
v -0.3 0.4 -0.5
v -0.3 0.5 -0.1
v -0.3 0.5 -0.4
v -0.3 0.6 0.2
v -0.3 0.6 0.1
v -0.3 0.6 -0.5
v -0.2 0.3 0.2
v -0.2 0.3 0.1
v -0.2 0.3 -0.5
v -0.2 0.4 0.3
v -0.2 0.4 0.2
v -0.2 0.4 0.1
v -0.2 0.4 -0.5
v -0.2 0.6 0.3
v -0.2 0.6 0.2
v -0.2 0.6 0.1
v -0.2 0.6 -0.5
v -0.2 0.7 0.2
v -0.2 0.7 0.1
v -0.2 0.7 -0.5
v -0.1 0.2 0.2
v -0.1 0.2 0.1
v -0.1 0.2 -0.5
v -0.1 0.3 0.3
v -0.1 0.3 0.2
v -0.1 0.3 0.1
v -0.1 0.3 -0.5
v -0.1 0.4 0.4
v -0.1 0.4 0.3
v -0.1 0.4 0.2
v -0.1 0.6 0.4
v -0.1 0.6 0.3
v -0.1 0.6 0.2
v -0.1 0.7 0.3
v -0.1 0.7 0.2
v -0.1 0.7 0.1
v -0.1 0.7 -0.5
v -0.1 0.8 0.2
v -0.1 0.8 0.1
v -0.1 0.8 -0.5
v 0 0.2 0.2
v 0 0.2 0.1
v 0 0.2 -0.5
v 0 0.3 0.3
v 0 0.3 0.2
v 0 0.3 0.1
v 0 0.3 -0.5
v 0 0.4 0.4
v 0 0.4 0.3
v 0 0.4 0.2
v 0 0.6 0.4
v 0 0.6 0.3
v 0 0.6 0.2
v 0 0.7 0.3
v 0 0.7 0.2
v 0 0.7 0.1
v 0 0.7 -0.5
v 0 0.8 0.2
v 0 0.8 0.1
v 0 0.8 -0.5
v 0.1 0.3 0.2
v 0.1 0.3 0.1
v 0.1 0.3 -0.5
v 0.1 0.4 0.3
v 0.1 0.4 0.2
v 0.1 0.4 0.1
v 0.1 0.4 -0.5
v 0.1 0.6 0.3
v 0.1 0.6 0.2
v 0.1 0.6 0.1
v 0.1 0.6 -0.5
v 0.1 0.7 0.2
v 0.1 0.7 0.1
v 0.1 0.7 -0.5
v 0.2 0.4 0.2
v 0.2 0.4 0.1
v 0.2 0.4 -0.1
v 0.2 0.4 -0.4
v 0.2 0.4 -0.5
v 0.2 0.5 -0.1
v 0.2 0.5 -0.4
v 0.2 0.6 0.2
v 0.2 0.6 0.1
v 0.2 0.6 -0.5
v 0.3 0.4 -0.1
v 0.3 0.4 -0.2
v 0.3 0.5 -0.1
v 0.3 0.5 -0.2
v 0.4 0.4 -0.2
v 0.4 0.4 -0.4
v 0.4 0.5 -0.2
v 0.4 0.5 -0.4
v -0.1 0.4 0.4
v -0.1 0.6 0.4
v 0 0.4 0.4
v 0 0.6 0.4
v -0.2 0.4 0.3
v -0.2 0.6 0.3
v -0.1 0.3 0.3
v -0.1 0.4 0.3
v -0.1 0.6 0.3
v -0.1 0.7 0.3
v 0 0.3 0.3
v 0 0.4 0.3
v 0 0.6 0.3
v 0 0.7 0.3
v 0.1 0.4 0.3
v 0.1 0.6 0.3
v -0.3 0.4 0.2
v -0.3 0.6 0.2
v -0.2 0.3 0.2
v -0.2 0.4 0.2
v -0.2 0.6 0.2
v -0.2 0.7 0.2
v -0.1 0.2 0.2
v -0.1 0.3 0.2
v -0.1 0.4 0.2
v -0.1 0.6 0.2
v -0.1 0.7 0.2
v -0.1 0.8 0.2
v 0 0.2 0.2
v 0 0.3 0.2
v 0 0.4 0.2
v 0 0.6 0.2
v 0 0.7 0.2
v 0 0.8 0.2
v 0.1 0.3 0.2
v 0.1 0.4 0.2
v 0.1 0.6 0.2
v 0.1 0.7 0.2
v 0.2 0.4 0.2
v 0.2 0.6 0.2
v -0.4 0.4 -0.1
v -0.4 0.5 -0.1
v -0.3 0.4 -0.1
v -0.3 0.5 -0.1
v 0.2 0.4 -0.1
v 0.2 0.5 -0.1
v 0.3 0.4 -0.1
v 0.3 0.5 -0.1
v -0.5 0.4 -0.2
v -0.5 0.5 -0.2
v -0.4 0.4 -0.2
v -0.4 0.5 -0.2
v 0.3 0.4 -0.2
v 0.3 0.5 -0.2
v 0.4 0.4 -0.2
v 0.4 0.5 -0.2
v -0.5 0.4 -0.4
v -0.5 0.5 -0.4
v -0.3 0.4 -0.4
v -0.3 0.5 -0.4
v 0.2 0.4 -0.4
v 0.2 0.5 -0.4
v 0.4 0.4 -0.4
v 0.4 0.5 -0.4
v -0.3 0.4 -0.5
v -0.3 0.6 -0.5
v -0.2 0.3 -0.5
v -0.2 0.4 -0.5
v -0.2 0.6 -0.5
v -0.2 0.7 -0.5
v -0.1 0.2 -0.5
v -0.1 0.3 -0.5
v -0.1 0.7 -0.5
v -0.1 0.8 -0.5
v 0 0.2 -0.5
v 0 0.3 -0.5
v 0 0.7 -0.5
v 0 0.8 -0.5
v 0.1 0.3 -0.5
v 0.1 0.4 -0.5
v 0.1 0.6 -0.5
v 0.1 0.7 -0.5
v 0.2 0.4 -0.5
v 0.2 0.6 -0.5
v -0.1 0.2 0.2
v 0 0.2 0.2
v -0.1 0.2 0.1
v 0 0.2 0.1
v -0.1 0.2 -0.5
v 0 0.2 -0.5
v -0.1 0.3 0.3
v 0 0.3 0.3
v -0.2 0.3 0.2
v -0.1 0.3 0.2
v 0 0.3 0.2
v 0.1 0.3 0.2
v -0.2 0.3 0.1
v -0.1 0.3 0.1
v 0 0.3 0.1
v 0.1 0.3 0.1
v -0.2 0.3 -0.5
v -0.1 0.3 -0.5
v 0 0.3 -0.5
v 0.1 0.3 -0.5
v -0.1 0.4 0.4
v 0 0.4 0.4
v -0.2 0.4 0.3
v -0.1 0.4 0.3
v 0 0.4 0.3
v 0.1 0.4 0.3
v -0.3 0.4 0.2
v -0.2 0.4 0.2
v -0.1 0.4 0.2
v 0 0.4 0.2
v 0.1 0.4 0.2
v 0.2 0.4 0.2
v -0.3 0.4 0.1
v -0.2 0.4 0.1
v 0.1 0.4 0.1
v 0.2 0.4 0.1
v -0.4 0.4 -0.1
v -0.3 0.4 -0.1
v 0.2 0.4 -0.1
v 0.3 0.4 -0.1
v -0.5 0.4 -0.2
v -0.4 0.4 -0.2
v 0.3 0.4 -0.2
v 0.4 0.4 -0.2
v -0.5 0.4 -0.4
v -0.3 0.4 -0.4
v 0.2 0.4 -0.4
v 0.4 0.4 -0.4
v -0.3 0.4 -0.5
v -0.2 0.4 -0.5
v 0.1 0.4 -0.5
v 0.2 0.4 -0.5
v -0.4 0.5 -0.1
v -0.3 0.5 -0.1
v 0.2 0.5 -0.1
v 0.3 0.5 -0.1
v -0.5 0.5 -0.2
v -0.4 0.5 -0.2
v 0.3 0.5 -0.2
v 0.4 0.5 -0.2
v -0.5 0.5 -0.4
v -0.3 0.5 -0.4
v 0.2 0.5 -0.4
v 0.4 0.5 -0.4
v -0.1 0.6 0.4
v 0 0.6 0.4
v -0.2 0.6 0.3
v -0.1 0.6 0.3
v 0 0.6 0.3
v 0.1 0.6 0.3
v -0.3 0.6 0.2
v -0.2 0.6 0.2
v -0.1 0.6 0.2
v 0 0.6 0.2
v 0.1 0.6 0.2
v 0.2 0.6 0.2
v -0.3 0.6 0.1
v -0.2 0.6 0.1
v 0.1 0.6 0.1
v 0.2 0.6 0.1
v -0.3 0.6 -0.5
v -0.2 0.6 -0.5
v 0.1 0.6 -0.5
v 0.2 0.6 -0.5
v -0.1 0.7 0.3
v 0 0.7 0.3
v -0.2 0.7 0.2
v -0.1 0.7 0.2
v 0 0.7 0.2
v 0.1 0.7 0.2
v -0.2 0.7 0.1
v -0.1 0.7 0.1
v 0 0.7 0.1
v 0.1 0.7 0.1
v -0.2 0.7 -0.5
v -0.1 0.7 -0.5
v 0 0.7 -0.5
v 0.1 0.7 -0.5
v -0.1 0.8 0.2
v 0 0.8 0.2
v -0.1 0.8 0.1
v 0 0.8 0.1
v -0.1 0.8 -0.5
v 0 0.8 -0.5

# faces
f 3/3/1 2/3/1 1/3/1
f 4/3/1 2/3/1 3/3/1
f 7/3/1 6/3/1 5/3/1
f 8/3/1 6/3/1 7/3/1
f 14/2/1 11/2/1 10/2/1
f 15/2/1 13/2/1 12/2/1
f 16/1/1 10/1/1 9/1/1
f 17/2/1 15/2/1 14/2/1
f 17/1/1 10/1/1 16/1/1
f 17/2/1 14/2/1 10/2/1
f 18/2/1 13/2/1 15/2/1
f 18/2/1 15/2/1 17/2/1
f 23/1/1 20/1/1 19/1/1
f 24/2/1 21/2/1 20/2/1
f 24/1/1 20/1/1 23/1/1
f 25/2/1 21/2/1 24/2/1
f 26/1/1 23/1/1 22/1/1
f 27/1/1 23/1/1 26/1/1
f 30/1/1 28/1/1 27/1/1
f 31/2/1 29/2/1 28/2/1
f 31/1/1 28/1/1 30/1/1
f 32/2/1 29/2/1 31/2/1
f 37/1/1 34/1/1 33/1/1
f 38/2/1 35/2/1 34/2/1
f 38/1/1 34/1/1 37/1/1
f 39/2/1 35/2/1 38/2/1
f 41/1/1 37/1/1 36/1/1
f 42/1/1 37/1/1 41/1/1
f 43/1/1 41/1/1 40/1/1
f 44/1/1 41/1/1 43/1/1
f 46/1/1 45/1/1 44/1/1
f 47/1/1 45/1/1 46/1/1
f 50/1/1 48/1/1 47/1/1
f 51/2/1 49/2/1 48/2/1
f 51/1/1 48/1/1 50/1/1
f 52/2/1 49/2/1 51/2/1
f 53/1/2 54/1/2 57/1/2
f 54/2/2 55/2/2 58/2/2
f 57/1/2 54/1/2 58/1/2
f 58/2/2 55/2/2 59/2/2
f 56/1/2 57/1/2 61/1/2
f 61/1/2 57/1/2 62/1/2
f 60/1/2 61/1/2 63/1/2
f 63/1/2 61/1/2 64/1/2
f 64/1/2 65/1/2 66/1/2
f 66/1/2 65/1/2 67/1/2
f 67/1/2 68/1/2 70/1/2
f 68/2/2 69/2/2 71/2/2
f 70/1/2 68/1/2 71/1/2
f 71/2/2 69/2/2 72/2/2
f 73/1/2 74/1/2 77/1/2
f 74/2/2 75/2/2 78/2/2
f 77/1/2 74/1/2 78/1/2
f 78/2/2 75/2/2 79/2/2
f 76/1/2 77/1/2 80/1/2
f 80/1/2 77/1/2 81/1/2
f 81/1/2 82/1/2 84/1/2
f 82/2/2 83/2/2 85/2/2
f 84/1/2 82/1/2 85/1/2
f 85/2/2 83/2/2 86/2/2
f 88/2/2 89/2/2 92/2/2
f 90/2/2 91/2/2 93/2/2
f 87/1/2 88/1/2 94/1/2
f 92/2/2 93/2/2 95/2/2
f 94/1/2 88/1/2 95/1/2
f 88/2/2 92/2/2 95/2/2
f 93/2/2 91/2/2 96/2/2
f 95/2/2 93/2/2 96/2/2
f 97/3/2 98/3/2 99/3/2
f 99/3/2 98/3/2 100/3/2
f 101/3/2 102/3/2 103/3/2
f 103/3/2 102/3/2 104/3/2
f 107/1/3 106/1/3 105/1/3
f 108/1/3 106/1/3 107/1/3
f 112/1/3 110/1/3 109/1/3
f 113/1/3 110/1/3 112/1/3
f 115/1/3 112/1/3 111/1/3
f 116/1/3 112/1/3 115/1/3
f 117/1/3 114/1/3 113/1/3
f 118/1/3 114/1/3 117/1/3
f 119/1/3 117/1/3 116/1/3
f 120/1/3 117/1/3 119/1/3
f 124/1/3 122/1/3 121/1/3
f 125/1/3 122/1/3 124/1/3
f 128/1/3 124/1/3 123/1/3
f 129/1/3 124/1/3 128/1/3
f 130/1/3 126/1/3 125/1/3
f 131/1/3 126/1/3 130/1/3
f 133/1/3 128/1/3 127/1/3
f 134/1/3 128/1/3 133/1/3
f 137/1/3 132/1/3 131/1/3
f 138/1/3 132/1/3 137/1/3
f 139/1/3 135/1/3 134/1/3
f 140/1/3 135/1/3 139/1/3
f 141/1/3 137/1/3 136/1/3
f 142/1/3 137/1/3 141/1/3
f 143/1/3 141/1/3 140/1/3
f 144/1/3 141/1/3 143/1/3
f 147/3/3 146/3/3 145/3/3
f 148/3/3 146/3/3 147/3/3
f 151/3/3 150/3/3 149/3/3
f 152/3/3 150/3/3 151/3/3
f 155/3/3 154/3/3 153/3/3
f 156/3/3 154/3/3 155/3/3
f 159/3/3 158/3/3 157/3/3
f 160/3/3 158/3/3 159/3/3
f 161/3/4 162/3/4 163/3/4
f 163/3/4 162/3/4 164/3/4
f 165/3/4 166/3/4 167/3/4
f 167/3/4 166/3/4 168/3/4
f 169/2/4 170/2/4 172/2/4
f 172/2/4 170/2/4 173/2/4
f 171/2/4 172/2/4 176/2/4
f 173/2/4 174/2/4 176/2/4
f 172/2/4 173/2/4 176/2/4
f 176/2/4 174/2/4 177/2/4
f 175/2/4 176/2/4 179/2/4
f 177/2/4 178/2/4 179/2/4
f 176/2/4 177/2/4 179/2/4
f 179/2/4 178/2/4 180/2/4
f 180/2/4 178/2/4 181/2/4
f 181/2/4 178/2/4 182/2/4
f 180/2/4 181/2/4 183/2/4
f 183/2/4 181/2/4 184/2/4
f 184/2/4 181/2/4 185/2/4
f 185/2/4 181/2/4 186/2/4
f 184/2/4 185/2/4 187/2/4
f 187/2/4 185/2/4 188/2/4
f 191/1/5 190/1/5 189/1/5
f 192/1/5 190/1/5 191/1/5
f 193/2/5 192/2/5 191/2/5
f 194/2/5 192/2/5 193/2/5
f 198/1/5 196/1/5 195/1/5
f 199/1/5 196/1/5 198/1/5
f 201/1/5 198/1/5 197/1/5
f 202/1/5 198/1/5 201/1/5
f 203/1/5 200/1/5 199/1/5
f 204/1/5 200/1/5 203/1/5
f 205/2/5 202/2/5 201/2/5
f 206/2/5 202/2/5 205/2/5
f 207/2/5 204/2/5 203/2/5
f 208/2/5 204/2/5 207/2/5
f 212/1/5 210/1/5 209/1/5
f 213/1/5 210/1/5 212/1/5
f 216/1/5 212/1/5 211/1/5
f 217/1/5 212/1/5 216/1/5
f 218/1/5 214/1/5 213/1/5
f 219/1/5 214/1/5 218/1/5
f 221/1/5 216/1/5 215/1/5
f 222/1/5 216/1/5 221/1/5
f 223/1/5 220/1/5 219/1/5
f 224/1/5 220/1/5 223/1/5
f 226/2/5 222/2/5 221/2/5
f 227/2/5 224/2/5 223/2/5
f 230/3/5 226/3/5 225/3/5
f 231/3/5 228/3/5 227/3/5
f 233/3/5 230/3/5 229/3/5
f 234/2/5 222/2/5 226/2/5
f 234/3/5 230/3/5 233/3/5
f 234/3/5 226/3/5 230/3/5
f 235/2/5 227/2/5 223/2/5
f 235/3/5 232/3/5 231/3/5
f 235/3/5 231/3/5 227/3/5
f 236/3/5 232/3/5 235/3/5
f 237/2/5 222/2/5 234/2/5
f 238/2/5 222/2/5 237/2/5
f 239/2/5 235/2/5 223/2/5
f 240/2/5 235/2/5 239/2/5
f 241/3/6 242/3/6 246/3/6
f 243/3/6 244/3/6 247/3/6
f 245/3/6 246/3/6 249/3/6
f 246/3/6 242/3/6 250/3/6
f 249/3/6 246/3/6 250/3/6
f 247/3/6 248/3/6 251/3/6
f 243/3/6 247/3/6 251/3/6
f 251/3/6 248/3/6 252/3/6
f 253/1/6 254/1/6 256/1/6
f 256/1/6 254/1/6 257/1/6
f 255/1/6 256/1/6 260/1/6
f 260/1/6 256/1/6 261/1/6
f 257/1/6 258/1/6 262/1/6
f 262/1/6 258/1/6 263/1/6
f 259/1/6 260/1/6 265/1/6
f 265/1/6 260/1/6 266/1/6
f 263/1/6 264/1/6 267/1/6
f 267/1/6 264/1/6 268/1/6
f 265/2/6 266/2/6 269/2/6
f 269/2/6 266/2/6 270/2/6
f 267/2/6 268/2/6 271/2/6
f 271/2/6 268/2/6 272/2/6
f 273/1/6 274/1/6 276/1/6
f 276/1/6 274/1/6 277/1/6
f 275/1/6 276/1/6 279/1/6
f 279/1/6 276/1/6 280/1/6
f 277/1/6 278/1/6 281/1/6
f 281/1/6 278/1/6 282/1/6
f 279/2/6 280/2/6 283/2/6
f 283/2/6 280/2/6 284/2/6
f 281/2/6 282/2/6 285/2/6
f 285/2/6 282/2/6 286/2/6
f 287/1/6 288/1/6 289/1/6
f 289/1/6 288/1/6 290/1/6
f 289/2/6 290/2/6 291/2/6
f 291/2/6 290/2/6 292/2/6
