# MagicaVoxel @ Ephtracy

# group
o 

# material
mtllib glider.mtl
usemtl palette

# normals
vn -1 0 0
vn 1 0 0
vn 0 0 1
vn 0 0 -1
vn 0 -1 0
vn 0 1 0

# texcoords
vt 0.587891 0.5
vt 0.611328 0.5
vt 0.638672 0.5
vt 0.958984 0.5

# verts
v -1 1.9 -0.7
v -1 1.9 -1.1
v -1 2 -0.7
v -1 2 -1.1
v -0.9 1.9 -0.6
v -0.9 1.9 -0.7
v -0.9 2 -0.6
v -0.9 2 -0.7
v -0.8 1.9 -0.5
v -0.8 1.9 -0.6
v -0.8 2 -0.5
v -0.8 2 -0.6
v -0.7 1.9 -0.4
v -0.7 1.9 -0.5
v -0.7 2 -0.4
v -0.7 2 -0.5
v -0.6 1.9 -0.3
v -0.6 1.9 -0.4
v -0.6 2 -0.3
v -0.6 2 -0.4
v -0.5 1.9 -0.2
v -0.5 1.9 -0.3
v -0.5 2 -0.2
v -0.5 2 -0.3
v -0.4 1.9 -0.1
v -0.4 1.9 -0.2
v -0.4 2 -0.1
v -0.4 2 -0.2
v -0.3 1.9 0
v -0.3 1.9 -0.1
v -0.3 2 0
v -0.3 2 -0.1
v -0.2 1.9 0.1
v -0.2 1.9 0
v -0.2 2 0.1
v -0.2 2 0
v -0.1 1.9 0.2
v -0.1 1.9 0.1
v -0.1 2 0.2
v -0.1 2 0.1
v 0.1 1.9 0.2
v 0.1 1.9 0.1
v 0.1 2 0.2
v 0.1 2 0.1
v 0.2 1.9 0.1
v 0.2 1.9 0
v 0.2 2 0.1
v 0.2 2 0
v 0.3 1.9 0
v 0.3 1.9 -0.1
v 0.3 2 0
v 0.3 2 -0.1
v 0.4 1.9 -0.1
v 0.4 1.9 -0.2
v 0.4 2 -0.1
v 0.4 2 -0.2
v 0.5 1.9 -0.2
v 0.5 1.9 -0.3
v 0.5 2 -0.2
v 0.5 2 -0.3
v 0.6 1.9 -0.3
v 0.6 1.9 -0.4
v 0.6 2 -0.3
v 0.6 2 -0.4
v 0.7 1.9 -0.4
v 0.7 1.9 -0.5
v 0.7 2 -0.4
v 0.7 2 -0.5
v 0.8 1.9 -0.5
v 0.8 1.9 -0.6
v 0.8 2 -0.5
v 0.8 2 -0.6
v 0.9 1.9 -0.6
v 0.9 1.9 -0.7
v 0.9 2 -0.6
v 0.9 2 -0.7
v 1 1.9 -0.7
v 1 1.9 -1.1
v 1 2 -0.7
v 1 2 -1.1
v -0.1 1.9 0.2
v -0.1 2 0.2
v 0.1 1.9 0.2
v 0.1 2 0.2
v -0.2 1.9 0.1
v -0.2 2 0.1
v -0.1 1.9 0.1
v -0.1 2 0.1
v 0.1 1.9 0.1
v 0.1 2 0.1
v 0.2 1.9 0.1
v 0.2 2 0.1
v -0.3 1.9 0
v -0.3 2 0
v -0.2 1.9 0
v -0.2 2 0
v 0.2 1.9 0
v 0.2 2 0
v 0.3 1.9 0
v 0.3 2 0
v -0.4 1.9 -0.1
v -0.4 2 -0.1
v -0.3 1.9 -0.1
v -0.3 2 -0.1
v 0.3 1.9 -0.1
v 0.3 2 -0.1
v 0.4 1.9 -0.1
v 0.4 2 -0.1
v -0.5 1.9 -0.2
v -0.5 2 -0.2
v -0.4 1.9 -0.2
v -0.4 2 -0.2
v 0.4 1.9 -0.2
v 0.4 2 -0.2
v 0.5 1.9 -0.2
v 0.5 2 -0.2
v -0.6 1.9 -0.3
v -0.6 2 -0.3
v -0.5 1.9 -0.3
v -0.5 2 -0.3
v 0.5 1.9 -0.3
v 0.5 2 -0.3
v 0.6 1.9 -0.3
v 0.6 2 -0.3
v -0.7 1.9 -0.4
v -0.7 2 -0.4
v -0.6 1.9 -0.4
v -0.6 2 -0.4
v 0.6 1.9 -0.4
v 0.6 2 -0.4
v 0.7 1.9 -0.4
v 0.7 2 -0.4
v -0.8 1.9 -0.5
v -0.8 2 -0.5
v -0.7 1.9 -0.5
v -0.7 2 -0.5
v 0.7 1.9 -0.5
v 0.7 2 -0.5
v 0.8 1.9 -0.5
v 0.8 2 -0.5
v -0.9 1.9 -0.6
v -0.9 2 -0.6
v -0.8 1.9 -0.6
v -0.8 2 -0.6
v 0.8 1.9 -0.6
v 0.8 2 -0.6
v 0.9 1.9 -0.6
v 0.9 2 -0.6
v -1 1.9 -0.7
v -1 2 -0.7
v -0.9 1.9 -0.7
v -0.9 2 -0.7
v 0.9 1.9 -0.7
v 0.9 2 -0.7
v 1 1.9 -0.7
v 1 2 -0.7
v -1 1.9 -1.1
v -1 2 -1.1
v -0.9 1.9 -1.1
v -0.9 2 -1.1
v 0.9 1.9 -1.1
v 0.9 2 -1.1
v 1 1.9 -1.1
v 1 2 -1.1
v -0.1 1.9 0.2
v 0.1 1.9 0.2
v -0.2 1.9 0.1
v -0.1 1.9 0.1
v 0 1.9 0.1
v 0.1 1.9 0.1
v 0.2 1.9 0.1
v -0.3 1.9 0
v -0.2 1.9 0
v -0.1 1.9 0
v 0.1 1.9 0
v 0.2 1.9 0
v 0.3 1.9 0
v -0.4 1.9 -0.1
v -0.3 1.9 -0.1
v -0.2 1.9 -0.1
v -0.1 1.9 -0.1
v 0 1.9 -0.1
v 0.2 1.9 -0.1
v 0.3 1.9 -0.1
v 0.4 1.9 -0.1
v -0.5 1.9 -0.2
v -0.4 1.9 -0.2
v -0.3 1.9 -0.2
v 0.1 1.9 -0.2
v 0.2 1.9 -0.2
v 0.3 1.9 -0.2
v 0.4 1.9 -0.2
v 0.5 1.9 -0.2
v -0.6 1.9 -0.3
v -0.5 1.9 -0.3
v -0.4 1.9 -0.3
v -0.3 1.9 -0.3
v -0.2 1.9 -0.3
v 0.4 1.9 -0.3
v 0.5 1.9 -0.3
v 0.6 1.9 -0.3
v -0.7 1.9 -0.4
v -0.6 1.9 -0.4
v -0.5 1.9 -0.4
v -0.4 1.9 -0.4
v 0.3 1.9 -0.4
v 0.4 1.9 -0.4
v 0.5 1.9 -0.4
v 0.6 1.9 -0.4
v 0.7 1.9 -0.4
v -0.8 1.9 -0.5
v -0.7 1.9 -0.5
v -0.6 1.9 -0.5
v 0.6 1.9 -0.5
v 0.7 1.9 -0.5
v 0.8 1.9 -0.5
v -0.9 1.9 -0.6
v -0.8 1.9 -0.6
v -0.7 1.9 -0.6
v 0.5 1.9 -0.6
v 0.6 1.9 -0.6
v 0.7 1.9 -0.6
v 0.8 1.9 -0.6
v 0.9 1.9 -0.6
v -1 1.9 -0.7
v -0.9 1.9 -0.7
v -0.8 1.9 -0.7
v -0.7 1.9 -0.7
v -0.6 1.9 -0.7
v 0.8 1.9 -0.7
v 0.9 1.9 -0.7
v 1 1.9 -0.7
v 0.7 1.9 -0.8
v 0.8 1.9 -0.8
v -0.9 1.9 -0.9
v -0.8 1.9 -0.9
v 0.8 1.9 -0.9
v 0.9 1.9 -0.9
v -0.9 1.9 -1
v -0.8 1.9 -1
v -0.7 1.9 -1
v -0.6 1.9 -1
v -0.5 1.9 -1
v -0.4 1.9 -1
v -0.3 1.9 -1
v -0.2 1.9 -1
v -0.1 1.9 -1
v 0 1.9 -1
v 0.1 1.9 -1
v 0.2 1.9 -1
v 0.3 1.9 -1
v 0.4 1.9 -1
v 0.5 1.9 -1
v 0.6 1.9 -1
v 0.7 1.9 -1
v 0.9 1.9 -1
v -1 1.9 -1.1
v -0.9 1.9 -1.1
v 0.9 1.9 -1.1
v 1 1.9 -1.1
v -0.1 2 0.2
v 0.1 2 0.2
v -0.2 2 0.1
v -0.1 2 0.1
v 0 2 0.1
v 0.1 2 0.1
v 0.2 2 0.1
v -0.3 2 0
v -0.2 2 0
v -0.1 2 0
v 0.1 2 0
v 0.2 2 0
v 0.3 2 0
v -0.4 2 -0.1
v -0.3 2 -0.1
v -0.2 2 -0.1
v -0.1 2 -0.1
v 0 2 -0.1
v 0.2 2 -0.1
v 0.3 2 -0.1
v 0.4 2 -0.1
v -0.5 2 -0.2
v -0.4 2 -0.2
v -0.3 2 -0.2
v 0.1 2 -0.2
v 0.2 2 -0.2
v 0.3 2 -0.2
v 0.4 2 -0.2
v 0.5 2 -0.2
v -0.6 2 -0.3
v -0.5 2 -0.3
v -0.4 2 -0.3
v -0.3 2 -0.3
v -0.2 2 -0.3
v 0.4 2 -0.3
v 0.5 2 -0.3
v 0.6 2 -0.3
v -0.7 2 -0.4
v -0.6 2 -0.4
v -0.5 2 -0.4
v -0.4 2 -0.4
v 0.3 2 -0.4
v 0.4 2 -0.4
v 0.5 2 -0.4
v 0.6 2 -0.4
v 0.7 2 -0.4
v -0.8 2 -0.5
v -0.7 2 -0.5
v -0.6 2 -0.5
v 0.6 2 -0.5
v 0.7 2 -0.5
v 0.8 2 -0.5
v -0.9 2 -0.6
v -0.8 2 -0.6
v -0.7 2 -0.6
v 0.5 2 -0.6
v 0.6 2 -0.6
v 0.7 2 -0.6
v 0.8 2 -0.6
v 0.9 2 -0.6
v -1 2 -0.7
v -0.9 2 -0.7
v -0.8 2 -0.7
v -0.7 2 -0.7
v -0.6 2 -0.7
v 0.8 2 -0.7
v 0.9 2 -0.7
v 1 2 -0.7
v 0.7 2 -0.8
v 0.8 2 -0.8
v -0.9 2 -0.9
v -0.8 2 -0.9
v 0.8 2 -0.9
v 0.9 2 -0.9
v -0.9 2 -1
v -0.8 2 -1
v -0.7 2 -1
v -0.6 2 -1
v -0.5 2 -1
v -0.4 2 -1
v -0.3 2 -1
v -0.2 2 -1
v -0.1 2 -1
v 0 2 -1
v 0.1 2 -1
v 0.2 2 -1
v 0.3 2 -1
v 0.4 2 -1
v 0.5 2 -1
v 0.6 2 -1
v 0.7 2 -1
v 0.9 2 -1
v -1 2 -1.1
v -0.9 2 -1.1
v 0.9 2 -1.1
v 1 2 -1.1

# faces
f 3/3/1 2/3/1 1/3/1
f 4/3/1 2/3/1 3/3/1
f 7/3/1 6/3/1 5/3/1
f 8/3/1 6/3/1 7/3/1
f 11/3/1 10/3/1 9/3/1
f 12/3/1 10/3/1 11/3/1
f 15/3/1 14/3/1 13/3/1
f 16/3/1 14/3/1 15/3/1
f 19/3/1 18/3/1 17/3/1
f 20/3/1 18/3/1 19/3/1
f 23/3/1 22/3/1 21/3/1
f 24/3/1 22/3/1 23/3/1
f 27/3/1 26/3/1 25/3/1
f 28/3/1 26/3/1 27/3/1
f 31/3/1 30/3/1 29/3/1
f 32/3/1 30/3/1 31/3/1
f 35/3/1 34/3/1 33/3/1
f 36/3/1 34/3/1 35/3/1
f 39/3/1 38/3/1 37/3/1
f 40/3/1 38/3/1 39/3/1
f 41/3/2 42/3/2 43/3/2
f 43/3/2 42/3/2 44/3/2
f 45/3/2 46/3/2 47/3/2
f 47/3/2 46/3/2 48/3/2
f 49/3/2 50/3/2 51/3/2
f 51/3/2 50/3/2 52/3/2
f 53/3/2 54/3/2 55/3/2
f 55/3/2 54/3/2 56/3/2
f 57/3/2 58/3/2 59/3/2
f 59/3/2 58/3/2 60/3/2
f 61/3/2 62/3/2 63/3/2
f 63/3/2 62/3/2 64/3/2
f 65/3/2 66/3/2 67/3/2
f 67/3/2 66/3/2 68/3/2
f 69/3/2 70/3/2 71/3/2
f 71/3/2 70/3/2 72/3/2
f 73/3/2 74/3/2 75/3/2
f 75/3/2 74/3/2 76/3/2
f 77/3/2 78/3/2 79/3/2
f 79/3/2 78/3/2 80/3/2
f 83/3/3 82/3/3 81/3/3
f 84/3/3 82/3/3 83/3/3
f 87/3/3 86/3/3 85/3/3
f 88/3/3 86/3/3 87/3/3
f 91/3/3 90/3/3 89/3/3
f 92/3/3 90/3/3 91/3/3
f 95/3/3 94/3/3 93/3/3
f 96/3/3 94/3/3 95/3/3
f 99/3/3 98/3/3 97/3/3
f 100/3/3 98/3/3 99/3/3
f 103/3/3 102/3/3 101/3/3
f 104/3/3 102/3/3 103/3/3
f 107/3/3 106/3/3 105/3/3
f 108/3/3 106/3/3 107/3/3
f 111/3/3 110/3/3 109/3/3
f 112/3/3 110/3/3 111/3/3
f 115/3/3 114/3/3 113/3/3
f 116/3/3 114/3/3 115/3/3
f 119/3/3 118/3/3 117/3/3
f 120/3/3 118/3/3 119/3/3
f 123/3/3 122/3/3 121/3/3
f 124/3/3 122/3/3 123/3/3
f 127/3/3 126/3/3 125/3/3
f 128/3/3 126/3/3 127/3/3
f 131/3/3 130/3/3 129/3/3
f 132/3/3 130/3/3 131/3/3
f 135/3/3 134/3/3 133/3/3
f 136/3/3 134/3/3 135/3/3
f 139/3/3 138/3/3 137/3/3
f 140/3/3 138/3/3 139/3/3
f 143/3/3 142/3/3 141/3/3
f 144/3/3 142/3/3 143/3/3
f 147/3/3 146/3/3 145/3/3
f 148/3/3 146/3/3 147/3/3
f 151/3/3 150/3/3 149/3/3
f 152/3/3 150/3/3 151/3/3
f 155/3/3 154/3/3 153/3/3
f 156/3/3 154/3/3 155/3/3
f 157/3/4 158/3/4 159/3/4
f 159/3/4 158/3/4 160/3/4
f 159/2/4 160/2/4 161/2/4
f 161/2/4 160/2/4 162/2/4
f 161/3/4 162/3/4 163/3/4
f 163/3/4 162/3/4 164/3/4
f 168/3/5 166/3/5 165/3/5
f 169/3/5 166/3/5 168/3/5
f 170/3/5 166/3/5 169/3/5
f 173/3/5 168/3/5 167/3/5
f 174/2/5 169/2/5 168/2/5
f 174/3/5 168/3/5 173/3/5
f 175/3/5 171/3/5 170/3/5
f 175/4/5 170/4/5 169/4/5
f 176/3/5 171/3/5 175/3/5
f 179/3/5 173/3/5 172/3/5
f 180/4/5 174/4/5 173/4/5
f 180/3/5 173/3/5 179/3/5
f 181/2/5 169/2/5 174/2/5
f 181/4/5 174/4/5 180/4/5
f 182/4/5 175/4/5 169/4/5
f 182/2/5 169/2/5 181/2/5
f 183/3/5 177/3/5 176/3/5
f 183/2/5 176/2/5 175/2/5
f 184/3/5 177/3/5 183/3/5
f 187/3/5 179/3/5 178/3/5
f 188/2/5 180/2/5 179/2/5
f 188/3/5 179/3/5 187/3/5
f 189/4/5 175/4/5 182/4/5
f 189/2/5 183/2/5 175/2/5
f 190/4/5 184/4/5 183/4/5
f 190/2/5 183/2/5 189/2/5
f 191/3/5 185/3/5 184/3/5
f 191/4/5 184/4/5 190/4/5
f 192/3/5 185/3/5 191/3/5
f 195/3/5 187/3/5 186/3/5
f 196/4/5 188/4/5 187/4/5
f 196/3/5 187/3/5 195/3/5
f 197/2/5 180/2/5 188/2/5
f 197/4/5 188/4/5 196/4/5
f 198/4/5 181/4/5 180/4/5
f 198/2/5 180/2/5 197/2/5
f 199/3/5 193/3/5 192/3/5
f 199/2/5 192/2/5 191/2/5
f 200/3/5 193/3/5 199/3/5
f 203/3/5 195/3/5 194/3/5
f 204/2/5 196/2/5 195/2/5
f 204/3/5 195/3/5 203/3/5
f 205/4/5 197/4/5 196/4/5
f 205/2/5 196/2/5 204/2/5
f 206/4/5 191/4/5 190/4/5
f 206/2/5 199/2/5 191/2/5
f 207/4/5 200/4/5 199/4/5
f 207/2/5 199/2/5 206/2/5
f 208/3/5 201/3/5 200/3/5
f 208/4/5 200/4/5 207/4/5
f 209/3/5 201/3/5 208/3/5
f 212/3/5 203/3/5 202/3/5
f 213/4/5 204/4/5 203/4/5
f 213/3/5 203/3/5 212/3/5
f 214/3/5 210/3/5 209/3/5
f 214/2/5 209/2/5 208/2/5
f 215/3/5 210/3/5 214/3/5
f 218/3/5 212/3/5 211/3/5
f 219/2/5 213/2/5 212/2/5
f 219/3/5 212/3/5 218/3/5
f 220/4/5 208/4/5 207/4/5
f 220/2/5 214/2/5 208/2/5
f 221/4/5 215/4/5 214/4/5
f 221/2/5 214/2/5 220/2/5
f 222/3/5 216/3/5 215/3/5
f 222/4/5 215/4/5 221/4/5
f 223/3/5 216/3/5 222/3/5
f 226/3/5 218/3/5 217/3/5
f 227/4/5 219/4/5 218/4/5
f 227/3/5 218/3/5 226/3/5
f 228/2/5 213/2/5 219/2/5
f 228/4/5 219/4/5 227/4/5
f 229/4/5 204/4/5 213/4/5
f 229/2/5 213/2/5 228/2/5
f 230/3/5 224/3/5 223/3/5
f 230/2/5 223/2/5 222/2/5
f 231/3/5 224/3/5 230/3/5
f 233/4/5 222/4/5 221/4/5
f 233/2/5 230/2/5 222/2/5
f 233/2/5 231/2/5 230/2/5
f 234/2/5 231/2/5 233/2/5
f 235/2/5 227/2/5 226/2/5
f 235/3/5 226/3/5 225/3/5
f 236/4/5 228/4/5 227/4/5
f 236/2/5 227/2/5 235/2/5
f 237/2/5 231/2/5 234/2/5
f 237/1/5 234/1/5 233/1/5
f 238/3/5 232/3/5 231/3/5
f 238/2/5 231/2/5 237/2/5
f 239/3/5 235/3/5 225/3/5
f 239/1/5 236/1/5 235/1/5
f 240/4/5 228/4/5 236/4/5
f 240/1/5 236/1/5 239/1/5
f 241/1/5 229/1/5 228/1/5
f 241/4/5 228/4/5 240/4/5
f 242/4/5 204/4/5 229/4/5
f 242/1/5 229/1/5 241/1/5
f 243/1/5 205/1/5 204/1/5
f 243/4/5 204/4/5 242/4/5
f 244/4/5 197/4/5 205/4/5
f 244/1/5 205/1/5 243/1/5
f 245/1/5 198/1/5 197/1/5
f 245/4/5 197/4/5 244/4/5
f 246/4/5 181/4/5 198/4/5
f 246/1/5 198/1/5 245/1/5
f 247/1/5 182/1/5 181/1/5
f 247/4/5 181/4/5 246/4/5
f 248/4/5 189/4/5 182/4/5
f 248/1/5 182/1/5 247/1/5
f 249/1/5 190/1/5 189/1/5
f 249/4/5 189/4/5 248/4/5
f 250/4/5 206/4/5 190/4/5
f 250/1/5 190/1/5 249/1/5
f 251/1/5 207/1/5 206/1/5
f 251/4/5 206/4/5 250/4/5
f 252/4/5 220/4/5 207/4/5
f 252/1/5 207/1/5 251/1/5
f 253/1/5 221/1/5 220/1/5
f 253/4/5 220/4/5 252/4/5
f 254/4/5 233/4/5 221/4/5
f 254/1/5 221/1/5 253/1/5
f 255/1/5 238/1/5 237/1/5
f 255/4/5 233/4/5 254/4/5
f 255/1/5 237/1/5 233/1/5
f 256/3/5 232/3/5 238/3/5
f 256/1/5 238/1/5 255/1/5
f 257/3/5 239/3/5 225/3/5
f 258/2/5 245/2/5 244/2/5
f 258/3/5 239/3/5 257/3/5
f 258/2/5 255/2/5 254/2/5
f 258/2/5 256/2/5 255/2/5
f 258/2/5 248/2/5 247/2/5
f 258/2/5 240/2/5 239/2/5
f 258/2/5 253/2/5 252/2/5
f 258/2/5 252/2/5 251/2/5
f 258/2/5 251/2/5 250/2/5
f 258/2/5 254/2/5 253/2/5
f 258/2/5 246/2/5 245/2/5
f 258/2/5 241/2/5 240/2/5
f 258/2/5 250/2/5 249/2/5
f 258/2/5 247/2/5 246/2/5
f 258/2/5 249/2/5 248/2/5
f 258/2/5 242/2/5 241/2/5
f 258/2/5 243/2/5 242/2/5
f 258/2/5 244/2/5 243/2/5
f 259/3/5 232/3/5 256/3/5
f 259/2/5 256/2/5 258/2/5
f 260/3/5 232/3/5 259/3/5
f 261/3/6 262/3/6 264/3/6
f 264/3/6 262/3/6 265/3/6
f 265/3/6 262/3/6 266/3/6
f 263/3/6 264/3/6 269/3/6
f 264/2/6 265/2/6 270/2/6
f 269/3/6 264/3/6 270/3/6
f 266/3/6 267/3/6 271/3/6
f 265/4/6 266/4/6 271/4/6
f 271/3/6 267/3/6 272/3/6
f 268/3/6 269/3/6 275/3/6
f 269/4/6 270/4/6 276/4/6
f 275/3/6 269/3/6 276/3/6
f 270/2/6 265/2/6 277/2/6
f 276/4/6 270/4/6 277/4/6
f 265/4/6 271/4/6 278/4/6
f 277/2/6 265/2/6 278/2/6
f 272/3/6 273/3/6 279/3/6
f 271/2/6 272/2/6 279/2/6
f 279/3/6 273/3/6 280/3/6
f 274/3/6 275/3/6 283/3/6
f 275/2/6 276/2/6 284/2/6
f 283/3/6 275/3/6 284/3/6
f 278/4/6 271/4/6 285/4/6
f 271/2/6 279/2/6 285/2/6
f 279/4/6 280/4/6 286/4/6
f 285/2/6 279/2/6 286/2/6
f 280/3/6 281/3/6 287/3/6
f 286/4/6 280/4/6 287/4/6
f 287/3/6 281/3/6 288/3/6
f 282/3/6 283/3/6 291/3/6
f 283/4/6 284/4/6 292/4/6
f 291/3/6 283/3/6 292/3/6
f 284/2/6 276/2/6 293/2/6
f 292/4/6 284/4/6 293/4/6
f 276/4/6 277/4/6 294/4/6
f 293/2/6 276/2/6 294/2/6
f 288/3/6 289/3/6 295/3/6
f 287/2/6 288/2/6 295/2/6
f 295/3/6 289/3/6 296/3/6
f 290/3/6 291/3/6 299/3/6
f 291/2/6 292/2/6 300/2/6
f 299/3/6 291/3/6 300/3/6
f 292/4/6 293/4/6 301/4/6
f 300/2/6 292/2/6 301/2/6
f 286/4/6 287/4/6 302/4/6
f 287/2/6 295/2/6 302/2/6
f 295/4/6 296/4/6 303/4/6
f 302/2/6 295/2/6 303/2/6
f 296/3/6 297/3/6 304/3/6
f 303/4/6 296/4/6 304/4/6
f 304/3/6 297/3/6 305/3/6
f 298/3/6 299/3/6 308/3/6
f 299/4/6 300/4/6 309/4/6
f 308/3/6 299/3/6 309/3/6
f 305/3/6 306/3/6 310/3/6
f 304/2/6 305/2/6 310/2/6
f 310/3/6 306/3/6 311/3/6
f 307/3/6 308/3/6 314/3/6
f 308/2/6 309/2/6 315/2/6
f 314/3/6 308/3/6 315/3/6
f 303/4/6 304/4/6 316/4/6
f 304/2/6 310/2/6 316/2/6
f 310/4/6 311/4/6 317/4/6
f 316/2/6 310/2/6 317/2/6
f 311/3/6 312/3/6 318/3/6
f 317/4/6 311/4/6 318/4/6
f 318/3/6 312/3/6 319/3/6
f 313/3/6 314/3/6 322/3/6
f 314/4/6 315/4/6 323/4/6
f 322/3/6 314/3/6 323/3/6
f 315/2/6 309/2/6 324/2/6
f 323/4/6 315/4/6 324/4/6
f 309/4/6 300/4/6 325/4/6
f 324/2/6 309/2/6 325/2/6
f 319/3/6 320/3/6 326/3/6
f 318/2/6 319/2/6 326/2/6
f 326/3/6 320/3/6 327/3/6
f 317/4/6 318/4/6 329/4/6
f 318/2/6 326/2/6 329/2/6
f 326/2/6 327/2/6 329/2/6
f 329/2/6 327/2/6 330/2/6
f 322/2/6 323/2/6 331/2/6
f 321/3/6 322/3/6 331/3/6
f 323/4/6 324/4/6 332/4/6
f 331/2/6 323/2/6 332/2/6
f 330/2/6 327/2/6 333/2/6
f 329/1/6 330/1/6 333/1/6
f 327/3/6 328/3/6 334/3/6
f 333/2/6 327/2/6 334/2/6
f 321/3/6 331/3/6 335/3/6
f 331/1/6 332/1/6 335/1/6
f 332/4/6 324/4/6 336/4/6
f 335/1/6 332/1/6 336/1/6
f 324/1/6 325/1/6 337/1/6
f 336/4/6 324/4/6 337/4/6
f 325/4/6 300/4/6 338/4/6
f 337/1/6 325/1/6 338/1/6
f 300/1/6 301/1/6 339/1/6
f 338/4/6 300/4/6 339/4/6
f 301/4/6 293/4/6 340/4/6
f 339/1/6 301/1/6 340/1/6
f 293/1/6 294/1/6 341/1/6
f 340/4/6 293/4/6 341/4/6
f 294/4/6 277/4/6 342/4/6
f 341/1/6 294/1/6 342/1/6
f 277/1/6 278/1/6 343/1/6
f 342/4/6 277/4/6 343/4/6
f 278/4/6 285/4/6 344/4/6
f 343/1/6 278/1/6 344/1/6
f 285/1/6 286/1/6 345/1/6
f 344/4/6 285/4/6 345/4/6
f 286/4/6 302/4/6 346/4/6
f 345/1/6 286/1/6 346/1/6
f 302/1/6 303/1/6 347/1/6
f 346/4/6 302/4/6 347/4/6
f 303/4/6 316/4/6 348/4/6
f 347/1/6 303/1/6 348/1/6
f 316/1/6 317/1/6 349/1/6
f 348/4/6 316/4/6 349/4/6
f 317/4/6 329/4/6 350/4/6
f 349/1/6 317/1/6 350/1/6
f 333/1/6 334/1/6 351/1/6
f 350/4/6 329/4/6 351/4/6
f 329/1/6 333/1/6 351/1/6
f 334/3/6 328/3/6 352/3/6
f 351/1/6 334/1/6 352/1/6
f 321/3/6 335/3/6 353/3/6
f 340/2/6 341/2/6 354/2/6
f 353/3/6 335/3/6 354/3/6
f 350/2/6 351/2/6 354/2/6
f 351/2/6 352/2/6 354/2/6
f 343/2/6 344/2/6 354/2/6
f 335/2/6 336/2/6 354/2/6
f 348/2/6 349/2/6 354/2/6
f 347/2/6 348/2/6 354/2/6
f 346/2/6 347/2/6 354/2/6
f 349/2/6 350/2/6 354/2/6
f 341/2/6 342/2/6 354/2/6
f 336/2/6 337/2/6 354/2/6
f 345/2/6 346/2/6 354/2/6
f 342/2/6 343/2/6 354/2/6
f 344/2/6 345/2/6 354/2/6
f 337/2/6 338/2/6 354/2/6
f 338/2/6 339/2/6 354/2/6
f 339/2/6 340/2/6 354/2/6
f 352/3/6 328/3/6 355/3/6
f 354/2/6 352/2/6 355/2/6
f 355/3/6 328/3/6 356/3/6
